<svg width="134" height="135" viewBox="0 0 134 135" fill="none" xmlns="http://www.w3.org/2000/svg">
<mask id="mask0_213_73" style="mask-type:alpha" maskUnits="userSpaceOnUse" x="1" y="0" width="133" height="133">
<rect x="1" width="133" height="133" fill="#C4C4C4" fill-opacity="0.3"/>
</mask>
<g mask="url(#mask0_213_73)">
</g>
<mask id="mask1_213_73" style="mask-type:alpha" maskUnits="userSpaceOnUse" x="0" y="2" width="133" height="133">
<circle cx="66.5" cy="68.5" r="66.5" fill="#C4C4C4"/>
</mask>
<g mask="url(#mask1_213_73)">
<path d="M-13.3984 90.5231L-2.66085 70.5966C0.29379 65.0404 7.97586 57.2617 15.067 70.5966C23.9309 87.2651 29.2493 92.5503 34.5676 89.2979C44.0197 83.5176 52.4294 51.3469 58.014 37.4046C63.2795 21.9963 83.3539 22.4019 88.2903 37.4048" stroke="url(#paint0_linear_213_73)" stroke-width="2"/>
<path d="M88.2901 37.4048C93.8747 51.3471 102.284 83.5178 111.736 89.2981C117.055 92.5505 121.502 86.956 131.237 70.5967C137.235 60.5173 146.937 63.3557 149.49 70.5967L153.575 79.1696L157.149 87.6847C158.681 90.5231 163.277 92.5505 167.362 87.6847L174 79.575" stroke="url(#paint1_linear_213_73)" stroke-width="2"/>
<path d="M-27 90.5231L-16.3534 70.5966C-13.4238 65.0404 -5.80678 57.2617 1.22429 70.5966C10.0131 87.2651 15.2864 92.5503 20.5597 89.2979C29.9318 83.5176 38.2702 51.3469 43.8075 37.4046C49.0283 21.9963 68.9327 22.4019 73.8273 37.4048" stroke="url(#paint2_linear_213_73)"/>
<path d="M73.8272 37.4048C79.3645 51.3471 87.703 83.5178 97.075 89.2981C102.348 92.5505 106.758 86.956 116.41 70.5967C122.358 60.5173 131.977 63.3557 134.509 70.5967L138.559 79.1696L142.103 87.6847C143.622 90.5231 148.179 92.5505 152.229 87.6847L158.811 79.5751" stroke="url(#paint3_linear_213_73)"/>
<path d="M85.42 97.67H86.19L88.46 104H87.7L87.19 102.52H84.44L83.92 104H83.15L85.42 97.67ZM85.8 98.5L84.64 101.9H86.97L85.8 98.5ZM89.5055 103.99V97.67C90.0655 97.59 90.5721 97.55 91.0255 97.55C92.1055 97.55 92.9321 97.8767 93.5055 98.53C94.0055 99.0967 94.2555 99.8433 94.2555 100.77C94.2555 101.897 93.9455 102.753 93.3255 103.34C92.7788 103.86 92.0288 104.12 91.0755 104.12C90.6021 104.12 90.0788 104.077 89.5055 103.99ZM90.2455 98.21V103.46C90.4921 103.5 90.7688 103.52 91.0755 103.52C91.8688 103.52 92.4755 103.267 92.8955 102.76C93.2755 102.293 93.4655 101.643 93.4655 100.81C93.4655 99.91 93.2021 99.2167 92.6755 98.73C92.2488 98.3367 91.7055 98.14 91.0455 98.14C90.7055 98.14 90.4388 98.1633 90.2455 98.21ZM99.7378 98.18L99.4378 98.61C98.9845 98.33 98.5178 98.19 98.0378 98.19C97.4311 98.19 96.9411 98.45 96.5678 98.97C96.2211 99.4567 96.0478 100.097 96.0478 100.89C96.0478 101.743 96.2578 102.403 96.6778 102.87C97.0378 103.27 97.5045 103.47 98.0778 103.47C98.5045 103.47 98.9045 103.39 99.2778 103.23V101.29H98.1478V100.64H100.008V103.55C99.3745 103.93 98.7011 104.12 97.9878 104.12C97.0411 104.12 96.3211 103.74 95.8278 102.98C95.4478 102.393 95.2578 101.683 95.2578 100.85C95.2578 99.9167 95.5178 99.1267 96.0378 98.48C96.5378 97.86 97.1778 97.55 97.9578 97.55C98.6245 97.55 99.2178 97.76 99.7378 98.18ZM101.595 104V97.67C102.189 97.59 102.702 97.55 103.135 97.55C104.629 97.55 105.375 98.19 105.375 99.47C105.375 100.343 105.002 100.93 104.255 101.23L105.525 104H104.775L103.605 101.41L103.595 101.4C103.482 101.413 103.342 101.42 103.175 101.42C102.915 101.42 102.635 101.4 102.335 101.36V104H101.595ZM102.335 98.21V100.76C102.575 100.8 102.842 100.82 103.135 100.82C104.109 100.82 104.595 100.37 104.595 99.47C104.595 98.5833 104.109 98.14 103.135 98.14C102.829 98.14 102.562 98.1633 102.335 98.21ZM108.477 97.67H109.247L111.517 104H110.757L110.247 102.52H107.497L106.977 104H106.207L108.477 97.67ZM108.857 98.5L107.697 101.9H110.027L108.857 98.5ZM112.562 104V97.67C113.155 97.59 113.669 97.55 114.102 97.55C115.595 97.55 116.342 98.19 116.342 99.47C116.342 100.117 116.132 100.613 115.712 100.96C115.332 101.267 114.822 101.42 114.182 101.42C113.895 101.42 113.602 101.4 113.302 101.36V104H112.562ZM113.302 98.21V100.76C113.542 100.8 113.822 100.82 114.142 100.82C115.089 100.82 115.562 100.37 115.562 99.47C115.562 98.5833 115.075 98.14 114.102 98.14C113.795 98.14 113.529 98.1633 113.302 98.21ZM118.478 104H117.738V97.67H118.478V100.39H121.688V97.67H122.428V104H121.688V101.02H118.478V104Z" fill="#94A3B8"/>
</g>
<defs>
<linearGradient id="paint0_linear_213_73" x1="37.4459" y1="26" x2="37.4459" y2="90.5231" gradientUnits="userSpaceOnUse">
<stop stop-color="#6CF8B7" stop-opacity="0.5"/>
<stop offset="0.765625" stop-color="#68CFC2" stop-opacity="0.6"/>
<stop offset="1" stop-color="#FF9900" stop-opacity="0.4"/>
</linearGradient>
<linearGradient id="paint1_linear_213_73" x1="131.145" y1="37.4048" x2="131.145" y2="90.6222" gradientUnits="userSpaceOnUse">
<stop offset="0.541667" stop-color="#6CF8B7" stop-opacity="0.7"/>
<stop offset="1" stop-color="#02FF8A" stop-opacity="0.6"/>
</linearGradient>
<linearGradient id="paint2_linear_213_73" x1="23.4136" y1="26" x2="23.4136" y2="90.5231" gradientUnits="userSpaceOnUse">
<stop stop-color="#6CF8B7" stop-opacity="0.5"/>
<stop offset="0.765625" stop-color="#68CFC2" stop-opacity="0.6"/>
<stop offset="1" stop-color="#FF9900" stop-opacity="0.4"/>
</linearGradient>
<linearGradient id="paint3_linear_213_73" x1="116.319" y1="37.4048" x2="116.319" y2="90.6222" gradientUnits="userSpaceOnUse">
<stop offset="0.541667" stop-color="#6CF8B7" stop-opacity="0.7"/>
<stop offset="1" stop-color="#6CF8B7" stop-opacity="0.6"/>
</linearGradient>
</defs>
</svg>
