<svg width="134" height="135" viewBox="0 0 134 135" fill="none" xmlns="http://www.w3.org/2000/svg">
<mask id="mask0_213_60" style="mask-type:alpha" maskUnits="userSpaceOnUse" x="1" y="0" width="133" height="133">
<rect x="1" width="133" height="133" fill="#C4C4C4" fill-opacity="0.3"/>
</mask>
<g mask="url(#mask0_213_60)">
</g>
<mask id="mask1_213_60" style="mask-type:alpha" maskUnits="userSpaceOnUse" x="0" y="2" width="133" height="133">
<circle cx="66.5" cy="68.5" r="66.5" fill="#C4C4C4"/>
</mask>
<g mask="url(#mask1_213_60)">
<path d="M-13.3984 90.5231L-2.66085 70.5966C0.29379 65.0404 7.97586 57.2617 15.067 70.5966C23.9309 87.2651 29.2493 92.5503 34.5676 89.2979C44.0197 83.5176 52.4294 51.3469 58.014 37.4046C63.2795 21.9963 83.3539 22.4019 88.2903 37.4048" stroke="url(#paint0_linear_213_60)" stroke-width="2"/>
<path d="M88.2901 37.4048C93.8747 51.3471 102.284 83.5178 111.736 89.2981C117.055 92.5505 121.502 86.956 131.237 70.5968C137.235 60.5173 146.937 63.3557 149.49 70.5968L153.575 79.1696L157.149 87.6847C158.681 90.5231 163.277 92.5505 167.362 87.6847L174 79.5751" stroke="url(#paint1_linear_213_60)" stroke-width="2"/>
<path d="M-27 90.5231L-16.3534 70.5966C-13.4238 65.0404 -5.80678 57.2617 1.22429 70.5966C10.0131 87.2651 15.2864 92.5503 20.5597 89.2979C29.9318 83.5176 38.2702 51.3469 43.8075 37.4046C49.0283 21.9963 68.9327 22.4019 73.8273 37.4048" stroke="url(#paint2_linear_213_60)"/>
<path d="M73.8272 37.4048C79.3645 51.3471 87.703 83.5178 97.075 89.2981C102.348 92.5505 106.758 86.956 116.41 70.5968C122.358 60.5173 131.977 63.3557 134.509 70.5968L138.559 79.1696L142.103 87.6847C143.622 90.5231 148.179 92.5505 152.229 87.6847L158.811 79.5751" stroke="url(#paint3_linear_213_60)"/>
<path d="M81.42 97.67H82.19L84.46 104H83.7L83.19 102.52H80.44L79.92 104H79.15L81.42 97.67ZM81.8 98.5L80.64 101.9H82.97L81.8 98.5ZM85.5055 103.99V97.67C86.0655 97.59 86.5721 97.55 87.0255 97.55C88.1055 97.55 88.9321 97.8767 89.5055 98.53C90.0055 99.0967 90.2555 99.8433 90.2555 100.77C90.2555 101.897 89.9455 102.753 89.3255 103.34C88.7788 103.86 88.0288 104.12 87.0755 104.12C86.6021 104.12 86.0788 104.077 85.5055 103.99ZM86.2455 98.21V103.46C86.4921 103.5 86.7688 103.52 87.0755 103.52C87.8688 103.52 88.4755 103.267 88.8955 102.76C89.2755 102.293 89.4655 101.643 89.4655 100.81C89.4655 99.91 89.2021 99.2167 88.6755 98.73C88.2488 98.3367 87.7055 98.14 87.0455 98.14C86.7055 98.14 86.4388 98.1633 86.2455 98.21ZM95.7378 98.18L95.4378 98.61C94.9845 98.33 94.5178 98.19 94.0378 98.19C93.4311 98.19 92.9411 98.45 92.5678 98.97C92.2211 99.4567 92.0478 100.097 92.0478 100.89C92.0478 101.743 92.2578 102.403 92.6778 102.87C93.0378 103.27 93.5045 103.47 94.0778 103.47C94.5045 103.47 94.9045 103.39 95.2778 103.23V101.29H94.1478V100.64H96.0078V103.55C95.3745 103.93 94.7011 104.12 93.9878 104.12C93.0411 104.12 92.3211 103.74 91.8278 102.98C91.4478 102.393 91.2578 101.683 91.2578 100.85C91.2578 99.9167 91.5178 99.1267 92.0378 98.48C92.5378 97.86 93.1778 97.55 93.9578 97.55C94.6245 97.55 95.2178 97.76 95.7378 98.18ZM97.5953 104V97.67C98.1886 97.59 98.702 97.55 99.1353 97.55C100.629 97.55 101.375 98.19 101.375 99.47C101.375 100.343 101.002 100.93 100.255 101.23L101.525 104H100.775L99.6053 101.41L99.5953 101.4C99.482 101.413 99.342 101.42 99.1753 101.42C98.9153 101.42 98.6353 101.4 98.3353 101.36V104H97.5953ZM98.3353 98.21V100.76C98.5753 100.8 98.842 100.82 99.1353 100.82C100.109 100.82 100.595 100.37 100.595 99.47C100.595 98.5833 100.109 98.14 99.1353 98.14C98.8286 98.14 98.562 98.1633 98.3353 98.21ZM104.477 97.67H105.247L107.517 104H106.757L106.247 102.52H103.497L102.977 104H102.207L104.477 97.67ZM104.857 98.5L103.697 101.9H106.027L104.857 98.5ZM108.562 104V97.67C109.155 97.59 109.669 97.55 110.102 97.55C111.595 97.55 112.342 98.19 112.342 99.47C112.342 100.117 112.132 100.613 111.712 100.96C111.332 101.267 110.822 101.42 110.182 101.42C109.895 101.42 109.602 101.4 109.302 101.36V104H108.562ZM109.302 98.21V100.76C109.542 100.8 109.822 100.82 110.142 100.82C111.089 100.82 111.562 100.37 111.562 99.47C111.562 98.5833 111.075 98.14 110.102 98.14C109.795 98.14 109.529 98.1633 109.302 98.21ZM114.478 104H113.738V97.67H114.478V100.39H117.688V97.67H118.428V104H117.688V101.02H114.478V104Z" fill="#94A3B8"/>
<circle cx="66.5" cy="68.5" r="66" stroke="#94A3B8" stroke-opacity="0.3"/>
</g>
<defs>
<linearGradient id="paint0_linear_213_60" x1="37.4459" y1="26" x2="37.4459" y2="90.5231" gradientUnits="userSpaceOnUse">
<stop stop-color="#6CF8B7" stop-opacity="0.5"/>
<stop offset="0.765625" stop-color="#68CFC2" stop-opacity="0.6"/>
<stop offset="1" stop-color="#FF9900" stop-opacity="0.4"/>
</linearGradient>
<linearGradient id="paint1_linear_213_60" x1="131.145" y1="37.4048" x2="131.145" y2="90.6222" gradientUnits="userSpaceOnUse">
<stop offset="0.541667" stop-color="#6CF8B7" stop-opacity="0.7"/>
<stop offset="1" stop-color="#02FF8A" stop-opacity="0.6"/>
</linearGradient>
<linearGradient id="paint2_linear_213_60" x1="23.4136" y1="26" x2="23.4136" y2="90.5231" gradientUnits="userSpaceOnUse">
<stop stop-color="#6CF8B7" stop-opacity="0.5"/>
<stop offset="0.765625" stop-color="#68CFC2" stop-opacity="0.6"/>
<stop offset="1" stop-color="#FF9900" stop-opacity="0.4"/>
</linearGradient>
<linearGradient id="paint3_linear_213_60" x1="116.319" y1="37.4048" x2="116.319" y2="90.6222" gradientUnits="userSpaceOnUse">
<stop offset="0.541667" stop-color="#6CF8B7" stop-opacity="0.7"/>
<stop offset="1" stop-color="#6CF8B7" stop-opacity="0.6"/>
</linearGradient>
</defs>
</svg>
