<svg width="133" height="133" viewBox="0 0 133 133" fill="none" xmlns="http://www.w3.org/2000/svg">
<mask id="mask0_213_48" style="mask-type:alpha" maskUnits="userSpaceOnUse" x="0" y="0" width="133" height="133">
<rect width="133" height="133" fill="#C4C4C4" fill-opacity="0.3"/>
</mask>
<g mask="url(#mask0_213_48)">
<path d="M-13 90.5231L-2.34255 70.5966C0.590045 65.0404 8.21478 57.2617 15.253 70.5966C24.0508 87.2651 29.3294 92.5503 34.6081 89.2979C43.9897 83.5176 52.3366 51.3469 57.8795 37.4046C63.1057 21.9963 83.0303 22.4019 87.9298 37.4048" stroke="white" stroke-width="2"/>
<path d="M87.9297 37.4048C93.4726 51.3471 101.82 83.5178 111.201 89.2981C116.48 92.5505 120.894 86.956 130.556 70.5967C136.51 60.5173 146.139 63.3557 148.673 70.5967L152.728 79.1696L156.275 87.6847C157.796 90.5231 162.357 92.5505 166.411 87.6847L173 79.575" stroke="white" stroke-width="2"/>
<path d="M-26.5 90.5231L-15.9328 70.5966C-13.0251 65.0404 -5.46494 57.2617 1.51366 70.5966C10.2369 87.2651 15.4708 92.5503 20.7048 89.2979C30.0069 83.5176 38.2831 51.3469 43.7791 37.4046C48.9609 21.9963 68.7168 22.4019 73.5748 37.4048" stroke="white"/>
<path d="M73.5747 37.4048C79.0707 51.3471 87.3469 83.5178 96.649 89.2981C101.883 92.5505 106.26 86.956 115.84 70.5967C121.743 60.5173 131.291 63.3557 133.803 70.5967L137.824 79.1696L141.341 87.6847C142.849 90.5231 147.371 92.5505 151.392 87.6847L157.924 79.575" stroke="white"/>
<path d="M-47 91H176.5" stroke="white"/>
<path d="M77.751 101.145H74.7725L74.1035 103H73.1367L75.8516 95.8906H76.6719L79.3916 103H78.4297L77.751 101.145ZM75.0557 100.373H77.4727L76.2617 97.0479L75.0557 100.373ZM80.3486 103V95.8906H82.3555C82.974 95.8906 83.5208 96.0273 83.9961 96.3008C84.4714 96.5742 84.8376 96.9632 85.0947 97.4678C85.3551 97.9723 85.487 98.5518 85.4902 99.2061V99.6602C85.4902 100.331 85.36 100.918 85.0996 101.423C84.8424 101.927 84.473 102.315 83.9912 102.585C83.5127 102.855 82.9544 102.993 82.3164 103H80.3486ZM81.2861 96.6621V102.233H82.2725C82.9951 102.233 83.5566 102.009 83.957 101.56C84.3607 101.11 84.5625 100.471 84.5625 99.6406V99.2256C84.5625 98.4183 84.3721 97.7917 83.9912 97.3457C83.6136 96.8965 83.0765 96.6686 82.3799 96.6621H81.2861ZM92.1602 102.067C91.9193 102.412 91.5824 102.671 91.1494 102.844C90.7197 103.013 90.2184 103.098 89.6455 103.098C89.0661 103.098 88.5518 102.963 88.1025 102.692C87.6533 102.419 87.305 102.032 87.0576 101.53C86.8135 101.029 86.6882 100.448 86.6816 99.7871V99.167C86.6816 98.096 86.9307 97.266 87.4287 96.6768C87.93 96.0876 88.6331 95.793 89.5381 95.793C90.2803 95.793 90.8776 95.9834 91.3301 96.3643C91.7826 96.7419 92.0592 97.279 92.1602 97.9756H91.2227C91.0469 97.0348 90.487 96.5645 89.543 96.5645C88.9147 96.5645 88.4378 96.7858 88.1123 97.2285C87.79 97.668 87.6273 98.306 87.624 99.1426V99.7236C87.624 100.521 87.8063 101.156 88.1709 101.628C88.5355 102.097 89.0286 102.331 89.6504 102.331C90.002 102.331 90.3096 102.292 90.5732 102.214C90.8369 102.136 91.055 102.004 91.2275 101.818V100.222H89.582V99.46H92.1602V102.067ZM96.335 100.124H94.665V103H93.7227V95.8906H96.0762C96.877 95.8906 97.4922 96.0729 97.9219 96.4375C98.3548 96.8021 98.5713 97.3327 98.5713 98.0293C98.5713 98.472 98.4508 98.8577 98.21 99.1865C97.9723 99.5153 97.6403 99.7611 97.2139 99.9238L98.8838 102.941V103H97.8779L96.335 100.124ZM94.665 99.3574H96.1055C96.571 99.3574 96.9404 99.237 97.2139 98.9961C97.4906 98.7552 97.6289 98.4329 97.6289 98.0293C97.6289 97.5898 97.4971 97.2529 97.2334 97.0186C96.973 96.7842 96.5954 96.6654 96.1006 96.6621H94.665V99.3574ZM103.815 101.145H100.837L100.168 103H99.2012L101.916 95.8906H102.736L105.456 103H104.494L103.815 101.145ZM101.12 100.373H103.537L102.326 97.0479L101.12 100.373ZM107.351 100.217V103H106.413V95.8906H109.035C109.813 95.8906 110.422 96.0892 110.861 96.4863C111.304 96.8835 111.525 97.4092 111.525 98.0635C111.525 98.7536 111.309 99.2858 110.876 99.6602C110.446 100.031 109.829 100.217 109.025 100.217H107.351ZM107.351 99.4502H109.035C109.536 99.4502 109.921 99.333 110.188 99.0986C110.454 98.861 110.588 98.5192 110.588 98.0732C110.588 97.6501 110.454 97.3115 110.188 97.0576C109.921 96.8037 109.554 96.6719 109.089 96.6621H107.351V99.4502ZM118.186 103H117.243V99.7139H113.659V103H112.722V95.8906H113.659V98.9473H117.243V95.8906H118.186V103Z" fill="white"/>
</g>
</svg>
