<svg width="169" height="169" viewBox="0 0 169 169" fill="none" xmlns="http://www.w3.org/2000/svg">
<path d="M45.3427 77.74C43.1246 76.6687 40.6491 76.05 38.0252 76.05C28.7066 76.05 21.1252 83.6314 21.1252 92.95C21.1252 102.269 28.7066 109.85 38.0252 109.85C43.8724 109.85 49.0339 106.863 52.0696 102.336L68.0341 110.327C67.7587 111.534 67.6003 112.787 67.6003 114.075C67.6003 123.394 75.1816 130.975 84.5003 130.975C93.8189 130.975 101.4 123.394 101.4 114.075C101.4 110.572 100.329 107.317 98.4956 104.615L120.929 81.1596C123.742 83.2476 127.211 84.5 130.975 84.5C140.294 84.5 147.875 76.9187 147.875 67.6C147.875 58.2814 140.294 50.7 130.975 50.7C127.076 50.7 123.493 52.0392 120.628 54.2659L97.8346 31.4726C100.061 28.6076 101.401 25.0248 101.401 21.1253C101.401 11.8066 93.8192 4.22525 84.5005 4.22525C75.1818 4.22525 67.6005 11.8066 67.6005 21.1253C67.6005 22.4097 67.7571 23.6583 68.0315 24.8626L53.0497 30.321C50.2402 24.8681 44.5675 21.125 38.0256 21.125C28.7069 21.125 21.1256 28.7063 21.1256 38.025C21.1256 47.3437 28.7069 54.925 38.0256 54.925C40.4295 54.925 42.7136 54.4139 44.7856 53.5029L52.5613 66.59L45.3427 77.74ZM38.0252 105.625C31.0352 105.625 25.3502 99.9401 25.3502 92.95C25.3502 85.9599 31.0352 80.275 38.0252 80.275C45.0153 80.275 50.7002 85.9599 50.7002 92.95C50.7002 99.9401 45.0153 105.625 38.0252 105.625ZM53.9511 98.55C54.5707 96.7949 54.9253 94.9143 54.9253 92.95C54.9253 87.7678 52.5761 83.1287 48.8944 80.028L54.9697 70.6444L73.2871 101.468C71.7452 102.841 70.4542 104.485 69.497 106.333L53.9511 98.55ZM84.5015 38.0238C88.401 38.0238 91.9838 36.6846 94.8488 34.4579L117.645 57.2541C116.278 59.012 115.256 61.0416 114.667 63.2512L101.396 61.4263C101.393 61.3707 101.401 61.316 101.401 61.2613C101.401 51.9426 93.82 44.3613 84.5013 44.3613C78.6542 44.3613 73.491 47.348 70.4569 51.8757L67.9369 50.6167L77.1858 36.3338C79.402 37.4051 81.8777 38.0238 84.5013 38.0238L84.5015 38.0238ZM86.614 97.3211V78.0152C93.4797 77.1533 99.0654 72.1635 100.814 65.6109L114.085 67.4357C114.085 67.4904 114.076 67.5451 114.076 67.5998C114.076 71.6344 115.5 75.3379 117.869 78.2473L95.6873 101.44C93.2003 99.2364 90.0721 97.7557 86.6139 97.3212L86.614 97.3211ZM84.5015 48.5863C91.4915 48.5863 97.1765 54.2712 97.1765 61.2613C97.1765 68.2514 91.4915 73.9363 84.5015 73.9363C77.5114 73.9363 71.8265 68.2514 71.8265 61.2613C71.8265 54.2712 77.5114 48.5863 84.5015 48.5863ZM68.5756 55.6614C67.956 57.4164 67.6014 59.297 67.6014 61.2613C67.6014 69.8632 74.0652 76.9701 82.3889 78.0152V97.3211C80.3858 97.5729 78.4959 98.1727 76.7738 99.062L57.5331 66.684L65.6258 54.1862L68.5756 55.6614ZM84.5015 126.75C77.5114 126.75 71.8265 121.065 71.8265 114.075C71.8265 107.085 77.5114 101.4 84.5015 101.4C91.4915 101.4 97.1765 107.085 97.1765 114.075C97.1765 121.065 91.4915 126.75 84.5015 126.75ZM130.976 54.925C137.967 54.925 143.651 60.6099 143.651 67.6C143.651 74.5901 137.967 80.275 130.976 80.275C123.986 80.275 118.301 74.5901 118.301 67.6C118.301 60.6099 123.986 54.925 130.976 54.925ZM84.5015 8.45001C91.4915 8.45001 97.1765 14.1349 97.1765 21.125C97.1765 28.1151 91.4915 33.8 84.5015 33.8C77.5114 33.8 71.8265 28.1151 71.8265 21.125C71.8265 14.1349 77.5114 8.45001 84.5015 8.45001ZM69.4773 28.829C70.51 30.834 71.9237 32.6061 73.6326 34.047L64.1348 48.7167L53.9523 43.6259C54.5719 41.8699 54.9265 39.9895 54.9265 38.025C54.9265 36.7405 54.7699 35.4919 54.4955 34.2877L69.4773 28.829ZM25.3515 38.025C25.3515 31.0349 31.0364 25.35 38.0265 25.35C45.0165 25.35 50.7015 31.0349 50.7015 38.025C50.7015 45.0151 45.0165 50.7 38.0265 50.7C31.0364 50.7 25.3515 45.0151 25.3515 38.025ZM48.4098 51.3318C49.8254 50.2247 51.0675 48.9062 52.0708 47.4115L61.8241 52.2872L55.1254 62.6319L48.4098 51.3318Z" fill="black"/>
<circle cx="38.5" cy="38.5" r="15.5" fill="black"/>
<circle cx="38.5" cy="92.5" r="15.5" fill="black"/>
</svg>
